<svg xmlns="http://www.w3.org/2000/svg" viewBox="0 0 448 512" width="550" height="550" fill="#E4405F">
  <path d="M224.1 141c-63.6 0-114.9 51.3-114.9 114.9S160.5 370.9 224.1 370.9 339 319.6 339 255.9 287.7 141 224.1 141zm0 186.6c-39.6 0-71.7-32.1-71.7-71.7s32.1-71.7 71.7-71.7 71.7 32.1 71.7 71.7-32.1 71.7-71.7 71.7zm146.4-194.3c0 14.9-12.1 27-27 27s-27-12.1-27-27 12.1-27 27-27 27 12.1 27 27zm76.1 27.2c-1.7-35.7-9.9-67.3-36.4-93.8C382.9 4.7 351.3-3.5 315.6-5.2 279.3-6.9 168.7-6.9 132.4-5.2 96.7-3.5 65.1 4.7 38.6 31.2 12.1 57.7 3.9 89.3 2.2 125c-1.7 36.3-1.7 146.9 0 183.2 1.7 35.7 9.9 67.3 36.4 93.8 26.5 26.5 58.1 34.7 93.8 36.4 36.3 1.7 146.9 1.7 183.2 0 35.7-1.7 67.3-9.9 93.8-36.4 26.5-26.5 34.7-58.1 36.4-93.8 1.7-36.3 1.7-146.9 0-183.2zM398.8 388c-7.8 19.5-22.9 34.6-42.4 42.4-29.4 11.7-99.2 9-132.3 9s-102.9 2.6-132.3-9c-19.5-7.8-34.6-22.9-42.4-42.4-11.7-29.4-9-99.2-9-132.3s-2.6-102.9 9-132.3c7.8-19.5 22.9-34.6 42.4-42.4 29.4-11.7 99.2-9 132.3-9s102.9-2.6 132.3 9c19.5 7.8 34.6 22.9 42.4 42.4 11.7 29.4 9 99.2 9 132.3s2.6 102.9-9 132.3z"/>
</svg>